<?xml version="1.0" encoding="UTF-8"?>
<svg width="512" height="512" viewBox="0 0 512 512" fill="none" xmlns="http://www.w3.org/2000/svg" role="img" aria-label="Karpagam College logo">
  <rect width="512" height="512" rx="112" fill="#0F1530"/>
  <g filter="url(#f1)">
    <path d="M256 96c-88 0-160 72-160 160s72 160 160 160 160-72 160-160S344 96 256 96Zm0 40c66.274 0 120 53.726 120 120s-53.726 120-120 120-120-53.726-120-120S189.726 136 256 136Z" fill="#5B8CFF"/>
  </g>
  <g filter="url(#f2)">
    <path d="M256 168c-48.601 0-88 39.399-88 88h40c0-26.51 21.49-48 48-48s48 21.49 48 48-21.49 48-48 48v40c48.601 0 88-39.399 88-88s-39.399-88-88-88Z" fill="#29E0A9"/>
  </g>
  <defs>
    <filter id="f1" x="76" y="76" width="360" height="360" filterUnits="userSpaceOnUse" color-interpolation-filters="sRGB">
      <feFlood flood-opacity="0" result="BackgroundImageFix"/>
      <feColorMatrix in="SourceAlpha" type="matrix" values="0 0 0 0 0 0 0 0 0 0 0 0 0 0 0 0 0 0 127 0" result="hardAlpha"/>
      <feOffset dy="2"/>
      <feGaussianBlur stdDeviation="10"/>
      <feComposite in2="hardAlpha" operator="out"/>
      <feColorMatrix type="matrix" values="0 0 0 0 0.244 0 0 0 0 0.345 0 0 0 0 0.700 0 0 0 0.6 0"/>
      <feBlend mode="normal" in2="BackgroundImageFix" result="effect1_dropShadow"/>
      <feBlend mode="normal" in="SourceGraphic" in2="effect1_dropShadow" result="shape"/>
    </filter>
    <filter id="f2" x="128" y="148" width="256" height="256" filterUnits="userSpaceOnUse" color-interpolation-filters="sRGB">
      <feFlood flood-opacity="0" result="BackgroundImageFix"/>
      <feColorMatrix in="SourceAlpha" type="matrix" values="0 0 0 0 0 0 0 0 0 0 0 0 0 0 0 0 0 0 127 0" result="hardAlpha"/>
      <feOffset dy="2"/>
      <feGaussianBlur stdDeviation="8"/>
      <feComposite in2="hardAlpha" operator="out"/>
      <feColorMatrix type="matrix" values="0 0 0 0 0.161 0 0 0 0 0.878 0 0 0 0 0.663 0 0 0 0.7 0"/>
      <feBlend mode="normal" in2="BackgroundImageFix" result="effect1_dropShadow"/>
      <feBlend mode="normal" in="SourceGraphic" in2="effect1_dropShadow" result="shape"/>
    </filter>
  </defs>
</svg>
